HIERARCHY
ROOT Hips
{
  OFFSET 5.80788e-005 67.184 3.4734
  CHANNELS 6 Xposition Yposition Zposition Zrotation Xrotation Yrotation
  JOINT Chest
  {
    OFFSET 0 8.7983 -4.7612
    CHANNELS 3 Zrotation Xrotation Yrotation
    JOINT Chest2
    {
      OFFSET 0 8.0291 0.4195
      CHANNELS 3 Zrotation Xrotation Yrotation
      JOINT Chest3
      {
        OFFSET 0 9.9351 -2.2114
        CHANNELS 3 Zrotation Xrotation Yrotation
        JOINT Neck
        {
          OFFSET 0 22.3885 -0.4656
          CHANNELS 3 Zrotation Xrotation Yrotation
          JOINT Head
          {
            OFFSET -0.0001 12.643 3.4389
            CHANNELS 3 Zrotation Xrotation Yrotation
            End Site
            {
              OFFSET 0.0001 17.6655 0.5274
            }
          }
        }
        JOINT LeftCollar
        {
          OFFSET 2.2603 21.606 7.4023
          CHANNELS 3 Zrotation Xrotation Yrotation
          JOINT LeftShoulder
          {
            OFFSET 13.5163 -1.1332 -5.0146
            CHANNELS 3 Zrotation Xrotation Yrotation
            JOINT LeftElbow
            {
              OFFSET -0.0995 -28.05 -0.2431
              CHANNELS 3 Zrotation Xrotation Yrotation
              JOINT LeftWrist
              {
                OFFSET 0.0679 -23.3996 -0.1402
                CHANNELS 3 Zrotation Xrotation Yrotation
                JOINT LeftFinger1
                {
                  OFFSET 0.7932 -9.069 2.5189
                  CHANNELS 3 Zrotation Xrotation Yrotation
                  JOINT LeftFinger11
                  {
                    OFFSET -0.8272 -3.3923 0.5977
                    CHANNELS 3 Zrotation Xrotation Yrotation
                    JOINT LeftFinger12
                    {
                      OFFSET -0.5649 -2.3158 0.4082
                      CHANNELS 3 Zrotation Xrotation Yrotation
                      End Site
                      {
                        OFFSET -0.4919 -1.6479 0.2673
                      }
                    }
                  }
                }
                JOINT LeftFinger2
                {
                  OFFSET 0.9159 -9.2044 0.2193
                  CHANNELS 3 Zrotation Xrotation Yrotation
                  JOINT LeftFinger21
                  {
                    OFFSET 0.0117 -4.1944 -0.0248
                    CHANNELS 3 Zrotation Xrotation Yrotation
                    JOINT LeftFinger22
                    {
                      OFFSET 0.0071 -2.3249 -0.0142
                      CHANNELS 3 Zrotation Xrotation Yrotation
                      End Site
                      {
                        OFFSET -0.1475 -2.0882 0.0028
                      }
                    }
                  }
                }
                JOINT LeftFinger3
                {
                  OFFSET 0.6113 -8.7231 -2.0637
                  CHANNELS 3 Zrotation Xrotation Yrotation
                  JOINT LeftFinger31
                  {
                    OFFSET -0.1927 -3.8059 -0.2383
                    CHANNELS 3 Zrotation Xrotation Yrotation
                    JOINT LeftFinger32
                    {
                      OFFSET -0.1091 -2.1688 -0.1362
                      CHANNELS 3 Zrotation Xrotation Yrotation
                      End Site
                      {
                        OFFSET -0.2358 -1.9176 -0.0906
                      }
                    }
                  }
                }
                JOINT LeftFinger4
                {
                  OFFSET -0.6151 -8.0947 -3.5641
                  CHANNELS 3 Zrotation Xrotation Yrotation
                  JOINT LeftFinger41
                  {
                    OFFSET -0.4882 -2.341 -0.6462
                    CHANNELS 3 Zrotation Xrotation Yrotation
                    JOINT LeftFinger42
                    {
                      OFFSET -0.3575 -1.7167 -0.4742
                      CHANNELS 3 Zrotation Xrotation Yrotation
                      End Site
                      {
                        OFFSET -0.4187 -1.5237 -0.3496
                      }
                    }
                  }
                }
                JOINT LeftFinger0
                {
                  OFFSET -1.42 -1.8761 1.4223
                  CHANNELS 3 Zrotation Xrotation Yrotation
                  JOINT LeftFinger01
                  {
                    OFFSET -1.1471 -3.4929 2.6334
                    CHANNELS 3 Zrotation Xrotation Yrotation
                    JOINT LeftFinger02
                    {
                      OFFSET -0.823 -2.3 1.6571
                      CHANNELS 3 Zrotation Xrotation Yrotation
                      End Site
                      {
                        OFFSET -0.5822 -1.6914 1.1582
                      }
                    }
                  }
                }
              }
            }
          }
        }
        JOINT RightCollar
        {
          OFFSET -2.2603 21.606 7.4023
          CHANNELS 3 Zrotation Xrotation Yrotation
          JOINT RightShoulder
          {
            OFFSET -13.5187 -1.1334 -5.0155
            CHANNELS 3 Zrotation Xrotation Yrotation
            JOINT RightElbow
            {
              OFFSET 0.0994 -28.0499 -0.2431
              CHANNELS 3 Zrotation Xrotation Yrotation
              JOINT RightWrist
              {
                OFFSET -0.0679 -23.3996 -0.1402
                CHANNELS 3 Zrotation Xrotation Yrotation
                JOINT RightFinger1
                {
                  OFFSET -0.7932 -9.0691 2.5189
                  CHANNELS 3 Zrotation Xrotation Yrotation
                  JOINT RightFinger11
                  {
                    OFFSET 0.8272 -3.3923 0.5977
                    CHANNELS 3 Zrotation Xrotation Yrotation
                    JOINT RightFinger12
                    {
                      OFFSET 0.565 -2.3158 0.4082
                      CHANNELS 3 Zrotation Xrotation Yrotation
                      End Site
                      {
                        OFFSET 0.4919 -1.6479 0.2673
                      }
                    }
                  }
                }
                JOINT RightFinger2
                {
                  OFFSET -0.916 -9.2044 0.2193
                  CHANNELS 3 Zrotation Xrotation Yrotation
                  JOINT RightFinger21
                  {
                    OFFSET -0.0117 -4.1944 -0.0248
                    CHANNELS 3 Zrotation Xrotation Yrotation
                    JOINT RightFinger22
                    {
                      OFFSET -0.0071 -2.3249 -0.0142
                      CHANNELS 3 Zrotation Xrotation Yrotation
                      End Site
                      {
                        OFFSET 0.1475 -2.0882 0.0028
                      }
                    }
                  }
                }
                JOINT RightFinger3
                {
                  OFFSET -0.6113 -8.7231 -2.0637
                  CHANNELS 3 Zrotation Xrotation Yrotation
                  JOINT RightFinger31
                  {
                    OFFSET 0.1927 -3.8059 -0.2383
                    CHANNELS 3 Zrotation Xrotation Yrotation
                    JOINT RightFinger32
                    {
                      OFFSET 0.1091 -2.1688 -0.1362
                      CHANNELS 3 Zrotation Xrotation Yrotation
                      End Site
                      {
                        OFFSET 0.2358 -1.9176 -0.0906
                      }
                    }
                  }
                }
                JOINT RightFinger4
                {
                  OFFSET 0.6151 -8.0947 -3.564
                  CHANNELS 3 Zrotation Xrotation Yrotation
                  JOINT RightFinger41
                  {
                    OFFSET 0.4882 -2.341 -0.6462
                    CHANNELS 3 Zrotation Xrotation Yrotation
                    JOINT RightFinger42
                    {
                      OFFSET 0.3574 -1.7166 -0.4742
                      CHANNELS 3 Zrotation Xrotation Yrotation
                      End Site
                      {
                        OFFSET 0.4187 -1.5237 -0.3496
                      }
                    }
                  }
                }
                JOINT RightFinger0
                {
                  OFFSET 1.4199 -1.8761 1.4221
                  CHANNELS 3 Zrotation Xrotation Yrotation
                  JOINT RightFinger01
                  {
                    OFFSET 1.1472 -3.4929 2.6336
                    CHANNELS 3 Zrotation Xrotation Yrotation
                    JOINT RightFinger02
                    {
                      OFFSET 0.8229 -2.3 1.6571
                      CHANNELS 3 Zrotation Xrotation Yrotation
                      End Site
                      {
                        OFFSET 0.5822 -1.6914 1.1582
                      }
                    }
                  }
                }
              }
            }
          }
        }
      }
    }
  }
  JOINT RightHip
  {
    OFFSET -9.412 3.9771 -0.7758
    CHANNELS 3 Zrotation Xrotation Yrotation
    JOINT RightKnee
    {
      OFFSET -0.7531 -40.938 0
      CHANNELS 3 Zrotation Xrotation Yrotation
      JOINT RightAnkle
      {
        OFFSET 0 -40.1986 0
        CHANNELS 3 Zrotation Xrotation Yrotation
        JOINT RightToe
        {
          OFFSET 0 -4.4182 9.239
          CHANNELS 3 Zrotation Xrotation Yrotation
          End Site
          {
            OFFSET 0 0 6.1981
          }
        }
      }
    }
  }
  JOINT LeftHip
  {
    OFFSET 9.4119 3.9773 -0.7758
    CHANNELS 3 Zrotation Xrotation Yrotation
    JOINT LeftKnee
    {
      OFFSET 0.7532 -40.9383 0
      CHANNELS 3 Zrotation Xrotation Yrotation
      JOINT LeftAnkle
      {
        OFFSET 0 -40.1986 0
        CHANNELS 3 Zrotation Xrotation Yrotation
        JOINT LeftToe
        {
          OFFSET 0 -4.4182 9.239
          CHANNELS 3 Zrotation Xrotation Yrotation
          End Site
          {
            OFFSET 0 0 6.1981
          }
        }
      }
    }
  }
}
MOTION
Frames:	6
Frame Time:	0.0333333
5.80788e-005 67.184 3.4734 0 0 -0 0 0 -0 0 0 -0 0 0 -0 0 0 -0 0 0 -0 0 0 -12.5014 88.1196 14.2451 10.6914 -0.00160068 -0.00239207 0.000740045 -8.4365e-005 7.00714e-005 -9.52055e-007 9.93923e-017 -1.98785e-016 -1.59028e-015 9.93923e-017 -5.96354e-016 -1.59028e-015 -9.93923e-017 -5.96354e-016 -1.59028e-015 9.93923e-017 -1.98785e-016 -1.59028e-015 -0.0128176 0.00232552 8.52707e-005 9.93923e-017 5.96354e-016 -0 9.93923e-017 -1.98785e-016 -1.59028e-015 -0.0160551 0.00299681 0.000857156 -2.48481e-016 0 3.18055e-015 9.93923e-017 -1.98785e-016 -1.59028e-015 -0.0125865 0.0031206 0.00282719 0 1.98785e-016 -0 9.93923e-017 -1.98785e-016 -1.59028e-015 9.93923e-017 -5.96354e-016 -1.59028e-015 -9.93923e-017 -5.96354e-016 -1.59028e-015 -0.865644 0.16582 7.03859 -88.0329 10.2057 -10.5567 0.0015593 -0.00248883 -0.000788628 7.87605e-005 4.10553e-005 1.24965e-005 -3.97569e-016 -7.95139e-016 3.18055e-015 -1.98785e-016 -3.97569e-016 3.18055e-015 -1.98785e-016 0 3.18055e-015 -3.97569e-016 -7.95139e-016 3.18055e-015 0.0129473 0.00231697 -8.70038e-005 9.93923e-017 -7.95139e-016 1.59028e-015 -3.97569e-016 -7.95139e-016 3.18055e-015 0.0163314 0.00303369 -0.000872333 3.97569e-016 7.95139e-016 -3.18055e-015 -3.97569e-016 -7.95139e-016 3.18055e-015 0.0145763 0.00367772 -0.00326275 9.93923e-017 -3.97569e-016 -0 -3.97569e-016 -7.95139e-016 3.18055e-015 -1.98785e-016 -3.97569e-016 3.18055e-015 -1.98785e-016 0 3.18055e-015 3.42485 1.36937 -0.0640303 0.000136572 0.69354 0.00145564 -3.42573 -2.06297 -0.0607933 -3.19502e-024 0 -1.48106e-024 -3.42498 1.36123 0.0639712 -6.769e-005 0.712612 -0.0012277 3.42582 -2.07388 0.0612819 2.55305e-023 0 -2.31416e-026 
-3.59297 1.68423 2.53614 -0 0 6.95608e-008 1.41377 1.07878 -5.30867 2.92201 2.02177 -10.6448 2.92202 2.02178 -10.6449 21.7655 -14.9139 5.86514 -0.00145285 -7.00064 -23.0033 -18.7939 2.51897 -43.1334 73.3316 -37.7104 5.56623 -48.0231 -56.3335 -26.556 3.69735 -25.8128 1.24517 5.29669e-031 -4.77083e-015 6.36111e-015 -4.77083e-015 -1.59028e-015 9.54166e-015 -5.29669e-031 3.18055e-015 9.54166e-015 5.29669e-031 -4.77083e-015 6.36111e-015 -0.0128011 0.00231874 7.2011e-005 3.18055e-015 3.18055e-015 -6.36111e-015 5.29669e-031 -4.77083e-015 6.36111e-015 -0.0160397 0.00298827 0.00085377 -1.59028e-015 -3.18055e-015 -0 5.29669e-031 -4.77083e-015 6.36111e-015 -0.0125943 0.003123 0.00282151 1.76556e-030 7.95139e-015 -1.27222e-014 5.29669e-031 -4.77083e-015 6.36111e-015 -4.77083e-015 -1.59028e-015 9.54166e-015 -5.29669e-031 3.18055e-015 9.54166e-015 -10.9966 -2.76576 32.7547 -101.514 18.3232 -7.04681 168.505 -68.3947 156.458 21.7019 1.19062 -70.3321 6.59072e-006 1.60983e-005 -1.47334e-005 4.65229e-006 -6.81631e-006 1.53311e-005 5.32325e-006 1.53015e-005 -2.97997e-006 6.59072e-006 1.60983e-005 -1.47334e-005 0.0129427 0.00231818 -8.32251e-005 6.81707e-006 2.01926e-007 1.0168e-006 6.59072e-006 1.60983e-005 -1.47334e-005 0.0163359 0.00302774 -0.000862804 1.57128e-006 1.49537e-006 1.71681e-006 6.59072e-006 1.60983e-005 -1.47334e-005 0.0145517 0.00365063 -0.00324015 6.66142e-006 1.55369e-005 -5.71701e-006 6.59072e-006 1.60983e-005 -1.47334e-005 4.65229e-006 -6.81631e-006 1.53311e-005 5.32325e-006 1.53015e-005 -2.97997e-006 -170.105 -77.4029 -172.089 4.31594 53.8062 -4.70818 -6.11636 18.7983 2.84539 9.28293e-008 5.0827e-009 -5.26363e-008 92.5858 -70.8612 123.728 -46.5749 45.1689 36.4843 6.65503 19.8202 -3.63367 1.19271e-015 -3.18055e-015 -3.97569e-015 
-3.59297 1.68423 2.53614 -0 0 6.95608e-008 1.41377 1.07878 -5.30867 2.92201 2.02177 -10.6448 2.92202 2.02178 -10.6449 21.5535 -14.8967 5.8524 -0.424152 -6.97159 -22.9223 -18.7939 2.51897 -43.1334 73.3317 -37.7105 5.56629 -48.0717 -56.5623 -26.6707 3.69736 -25.8128 1.24519 -8.82781e-031 -7.95139e-015 -6.36111e-015 -4.77083e-015 1.59028e-015 -1.59028e-014 -5.81866e-006 1.07714e-005 -5.17048e-006 -8.82781e-031 -7.95139e-015 -6.36111e-015 -0.0127983 0.00234085 8.10663e-005 -9.26688e-007 -1.33955e-006 -2.48614e-006 -8.82781e-031 -7.95139e-015 -6.36111e-015 -0.0160298 0.00300082 0.000858206 -1.59028e-015 -1.64642e-006 -3.18055e-015 -8.82781e-031 -7.95139e-015 -6.36111e-015 -0.0126081 0.00313992 0.00283537 1.89015e-005 -2.27661e-005 -8.59283e-006 -8.82781e-031 -7.95139e-015 -6.36111e-015 -4.77083e-015 1.59028e-015 -1.59028e-014 -5.81866e-006 1.07714e-005 -5.17048e-006 -10.9966 -2.76576 32.7547 -101.514 18.3232 -7.04681 168.506 -68.3946 156.458 21.1888 1.14565 -70.2431 -1.47667e-008 -5.06986e-007 -3.39115e-006 4.44304e-006 1.67337e-006 -3.87038e-006 -6.36111e-015 3.18055e-015 1.59028e-015 -1.47667e-008 -5.06986e-007 -3.39115e-006 0.0129359 0.00231191 -9.06777e-005 -3.18055e-015 0 7.95139e-015 -1.47667e-008 -5.06986e-007 -3.39115e-006 0.0163507 0.00304095 -0.000870845 -3.18055e-015 -3.18055e-015 7.95139e-016 -1.47667e-008 -5.06986e-007 -3.39115e-006 0.0145745 0.00367609 -0.00325642 3.18055e-015 6.36111e-015 -4.77083e-015 -1.47667e-008 -5.06986e-007 -3.39115e-006 4.44304e-006 1.67337e-006 -3.87038e-006 -6.36111e-015 3.18055e-015 1.59028e-015 -170.105 -77.4029 -172.089 4.31594 53.8062 -4.70818 -6.11636 18.7983 2.84539 9.28293e-008 5.0827e-009 -5.26363e-008 92.5858 -70.8612 123.728 -46.5749 45.1689 36.4843 6.65503 19.8202 -3.63367 1.19271e-015 -3.18055e-015 -3.97569e-015 
-3.59297 1.68423 2.53614 -0 0 6.95608e-008 1.41377 1.07878 -5.30867 2.92201 2.02177 -10.6448 2.92202 2.02178 -10.6449 21.3415 -14.8794 5.83972 -0.847186 -6.94311 -22.8411 -18.7939 2.51897 -43.1334 73.3317 -37.7105 5.56631 -48.1216 -56.7912 -26.7866 3.69733 -25.8128 1.24515 1.26703e-005 -3.58377e-006 -5.09416e-006 5.29669e-031 4.77083e-015 -6.36111e-015 9.42966e-006 -9.73816e-006 -4.32629e-006 1.26703e-005 -3.58377e-006 -5.09416e-006 -0.0128249 0.00231111 8.93839e-005 -9.43085e-006 1.67349e-005 4.32592e-006 1.26703e-005 -3.58377e-006 -5.09416e-006 -0.0160624 0.00299423 0.000856772 -1.80358e-006 7.57978e-006 -4.45275e-006 1.26703e-005 -3.58377e-006 -5.09416e-006 -0.0125708 0.00310484 0.00282796 -1.03687e-005 1.34919e-005 1.84668e-006 1.26703e-005 -3.58377e-006 -5.09416e-006 5.29669e-031 4.77083e-015 -6.36111e-015 9.42966e-006 -9.73816e-006 -4.32629e-006 -10.9966 -2.76576 32.7547 -101.514 18.3232 -7.04681 168.505 -68.3946 156.458 20.6746 1.09975 -70.1543 3.18055e-015 -3.18055e-015 -3.18055e-015 6.36111e-015 -1.27222e-014 1.59028e-015 6.36111e-015 -6.36111e-015 -3.18055e-015 3.18055e-015 -3.18055e-015 -3.18055e-015 0.0129411 0.00231817 -9.16612e-005 3.97252e-031 -9.54166e-015 2.38542e-015 3.18055e-015 -3.18055e-015 -3.18055e-015 0.0163659 0.0030364 -0.000869672 3.18055e-015 6.36111e-015 1.19271e-014 3.18055e-015 -3.18055e-015 -3.18055e-015 0.0146186 0.00370422 -0.00326248 -4.41391e-032 -3.18055e-015 -7.95139e-016 3.18055e-015 -3.18055e-015 -3.18055e-015 6.36111e-015 -1.27222e-014 1.59028e-015 6.36111e-015 -6.36111e-015 -3.18055e-015 -170.105 -77.4029 -172.089 4.31594 53.8062 -4.70818 -6.11636 18.7983 2.84539 9.28293e-008 5.0827e-009 -5.26363e-008 92.5858 -70.8612 123.728 -46.5749 45.1689 36.4843 6.65503 19.8202 -3.63367 1.19271e-015 -3.18055e-015 -3.97569e-015 
-3.59297 1.68423 2.53614 -0 0 6.95608e-008 1.41377 1.07878 -5.30867 2.92201 2.02177 -10.6448 2.92202 2.02178 -10.6449 21.1295 -14.8621 5.82711 -1.2706 -6.9152 -22.7596 -18.7939 2.51897 -43.1334 73.3317 -37.7106 5.56631 -48.1725 -57.0202 -26.9036 3.69735 -25.8128 1.24518 9.40968e-006 1.99061e-006 -4.35579e-006 9.49473e-007 -4.48836e-006 2.47218e-006 3.18055e-015 4.77083e-015 1.27222e-014 9.40968e-006 1.99061e-006 -4.35579e-006 -0.0128338 0.00232576 7.96157e-005 -3.53113e-031 -6.36111e-015 -3.18055e-015 9.40968e-006 1.99061e-006 -4.35579e-006 -0.0161335 0.00300662 0.000861928 1.76556e-031 3.18055e-015 -3.18055e-015 9.40968e-006 1.99061e-006 -4.35579e-006 -0.0126006 0.00312695 0.00283054 -1.59028e-015 -1.59028e-015 -0 9.40968e-006 1.99061e-006 -4.35579e-006 9.49473e-007 -4.48836e-006 2.47218e-006 3.18055e-015 4.77083e-015 1.27222e-014 -10.9966 -2.76576 32.7547 -101.514 18.3232 -7.04681 168.506 -68.3946 156.458 20.1592 1.05298 -70.0656 -2.45732e-006 -4.1973e-006 -7.06194e-006 -1.26298e-005 3.96089e-007 -3.80285e-006 -1.23589e-030 1.27222e-014 5.56597e-015 -2.45732e-006 -4.1973e-006 -7.06194e-006 0.0129631 0.00231074 -9.48976e-005 -3.78799e-006 1.17493e-007 2.89936e-007 -2.45732e-006 -4.1973e-006 -7.06194e-006 0.0163051 0.00303382 -0.000880528 -3.82692e-006 2.18573e-007 -8.52164e-007 -2.45732e-006 -4.1973e-006 -7.06194e-006 0.0146467 0.00369164 -0.00327428 -6.69593e-006 -2.30628e-005 3.73445e-006 -2.45732e-006 -4.1973e-006 -7.06194e-006 -1.26298e-005 3.96089e-007 -3.80285e-006 -1.23589e-030 1.27222e-014 5.56597e-015 -170.105 -77.4029 -172.089 4.31594 53.8062 -4.70818 -6.11636 18.7983 2.84539 9.28293e-008 5.0827e-009 -5.26363e-008 92.5858 -70.8612 123.728 -46.5749 45.1689 36.4843 6.65503 19.8202 -3.63367 1.19271e-015 -3.18055e-015 -3.97569e-015 
-3.59297 1.68423 2.53614 -0 0 6.95608e-008 1.41377 1.07878 -5.30867 2.92201 2.02177 -10.6448 2.92202 2.02178 -10.6449 20.9174 -14.8447 5.81457 -1.69437 -6.88788 -22.6778 -18.7939 2.51897 -43.1334 73.3317 -37.7105 5.56627 -48.2248 -57.2493 -27.022 3.69737 -25.8128 1.24515 4.9952e-006 -4.94944e-007 3.14174e-006 2.64834e-031 -1.59028e-015 9.54166e-015 -3.18055e-015 1.59028e-015 6.36111e-015 4.9952e-006 -4.94944e-007 3.14174e-006 -0.0127995 0.00232638 8.6052e-005 3.53113e-031 -3.18055e-015 6.36111e-015 4.9952e-006 -4.94944e-007 3.14174e-006 -0.0160838 0.00301214 0.000856591 3.18055e-015 9.54166e-015 9.54166e-015 4.9952e-006 -4.94944e-007 3.14174e-006 -0.0126227 0.00314365 0.00283426 7.19296e-006 -3.33015e-006 -6.21461e-007 4.9952e-006 -4.94944e-007 3.14174e-006 2.64834e-031 -1.59028e-015 9.54166e-015 -3.18055e-015 1.59028e-015 6.36111e-015 -10.9966 -2.76576 32.7547 -101.514 18.3232 -7.04681 168.506 -68.3946 156.458 19.6427 1.00529 -69.9772 -4.41391e-032 -3.18055e-015 -7.95139e-016 -1.50703e-006 -1.3493e-005 6.04811e-007 -3.18055e-015 3.18055e-015 3.97569e-015 -4.41391e-032 -3.18055e-015 -7.95139e-016 0.0129599 0.00232566 -8.19476e-005 3.18055e-015 6.36111e-015 7.95139e-016 -4.41391e-032 -3.18055e-015 -7.95139e-016 0.0163074 0.00302262 -0.000866129 3.18055e-015 3.18055e-015 -3.97569e-015 -4.41391e-032 -3.18055e-015 -7.95139e-016 0.0145773 0.00367293 -0.00326448 -6.36111e-015 0 -7.95139e-016 -4.41391e-032 -3.18055e-015 -7.95139e-016 -1.50703e-006 -1.3493e-005 6.04811e-007 -3.18055e-015 3.18055e-015 3.97569e-015 -170.105 -77.4029 -172.089 4.31594 53.8062 -4.70818 -6.11636 18.7983 2.84539 9.28293e-008 5.0827e-009 -5.26363e-008 92.5858 -70.8612 123.728 -46.5749 45.1689 36.4843 6.65503 19.8202 -3.63367 1.19271e-015 -3.18055e-015 -3.97569e-015 
